<svg xmlns="http://www.w3.org/2000/svg" id="Logo_White" width="418.501" height="446.294" data-name="Logo White" viewBox="0 0 418.501 446.294">
    <defs>
        <style>
            .cls-1,.cls-2{fill:#fff}.cls-2{fill-rule:evenodd}
        </style>
    </defs>
    <g id="Group_3" data-name="Group 3" transform="translate(123.904 178.899)">
        <g id="Group_1" data-name="Group 1">
            <path id="Path_1" d="M595.291-427.889l-6.678-22.858H549.09v45.767l10.8 9.047-40.424 3.842 10.8-13.243v-46.831q0-1.418-1.917-3.193a33.215 33.215 0 0 0-4.356-3.37q-2.442-1.6-4.878-3.016t-3.485-1.951q1.045-.706 3.485-2.129a55.138 55.138 0 0 0 4.966-3.281 36.438 36.438 0 0 0 4.356-3.725q1.829-1.862 1.829-3.282v-40.8l-10.106-10.822 24.741-3.073c1.277.593 2.091 3.06 2.439 3.769l2.265-4.154h40.423a66.408 66.408 0 0 1 17.424 2.6c5.459 1.48 10.25 4.524 14.374 7.6a32.027 32.027 0 0 1 9.758 12.063 40.711 40.711 0 0 1 3.572 17.738q0 14.548-7.928 24.746a34 34 0 0 1-21.01 13.216l6.423 22.192m-73.317 18.785q0-13.125 1.133-26.343t3.4-25.988q-.351 0-.7-1.33t-.7-3.105q-.352-1.771-.523-3.282t-.174-2.04q-1.045-9.046-1.568-17.916t-.872-17.916q-.175 9.046-.523 17.916t-1.394 17.916a18.433 18.433 0 0 1-.262 1.953q-.261 1.6-.609 3.281t-.784 3.1c-.292.947-.61 1.419-.958 1.419q2.262 12.772 3.4 25.988t1.142 26.346zm49.832-50.734a27.355 27.355 0 0 0 10.89-2.128 25.712 25.712 0 0 0 8.538-5.854 26.64 26.64 0 0 0 5.576-8.869 30.574 30.574 0 0 0 2-11.176 23.085 23.085 0 0 0-2.439-10.289 31.639 31.639 0 0 0-6.36-8.78 31.987 31.987 0 0 0-8.886-6.121 23.988 23.988 0 0 0-10.193-2.306h-39.2v55.523zm24.393-54.459a35.594 35.594 0 0 1 8.015 12.418 39.655 39.655 0 0 1 2.962 14.723 39.4 39.4 0 0 1-3.136 15.434 62.921 62.921 0 0 1-7.841 13.659 45.826 45.826 0 0 0 5.576-6.032 48.363 48.363 0 0 0 4.617-7.184 44.215 44.215 0 0 0 3.224-7.894 28.426 28.426 0 0 0 1.219-8.161 27.611 27.611 0 0 0-4.269-15.079 51.618 51.618 0 0 0-10.359-11.885z" class="cls-1" data-name="Path 1" transform="translate(-515.636 531.194)"/>
        </g>
        <g id="Group_2" data-name="Group 2" transform="translate(66.805 .406)">
            <path id="Path_2" d="M798.778-463.629q-2.442-1.33-4.966-2.926a34.959 34.959 0 0 1-4.443-3.282q-1.92-1.684-1.917-3.1v-42.043l10.106-12.42-40.249-2.689 11.325 15.817v40.8q0 1.421-1.917 3.193a39.179 39.179 0 0 1-4.356 3.459q-2.442 1.688-4.879 3.1t-3.659 2.13q1.217.532 3.659 1.862t4.879 2.927a33.316 33.316 0 0 1 4.356 3.37q1.915 1.777 1.917 3.193v16.852a92.132 92.132 0 0 1-.61 10.466 34.4 34.4 0 0 1-2.526 9.757 16.949 16.949 0 0 1-5.75 7.184q-3.834 2.753-10.105 2.749a16.232 16.232 0 0 1-7.928-1.951 21.438 21.438 0 0 1-6.186-5.056 22.1 22.1 0 0 1-4.008-7.184 25.565 25.565 0 0 1-1.394-8.337 8.009 8.009 0 0 1 2.091-5.411 8.571 8.571 0 0 1 5.053-2.927q-.522 1.6-1.307 3.637a10.685 10.685 0 0 0-.784 3.814 8.129 8.129 0 0 0 2.527 6.03 8.265 8.265 0 0 0 6.011 2.484 7.121 7.121 0 0 0 5.575-2.128 8.164 8.164 0 0 0 1.917-5.677 10.559 10.559 0 0 0-4.356-9.047 16.113 16.113 0 0 0-9.758-3.193 23.851 23.851 0 0 0-8.712 1.951 16.133 16.133 0 0 0-7.318 5.323h-2.091a50.09 50.09 0 0 0-6.011-2.75 17.849 17.849 0 0 0-6.36-1.153 16.4 16.4 0 0 0-9.685 2.932 20.638 20.638 0 0 1 16.2 11.618c.121.128-.024.043.1.173q4.182 13.3 13.33 20.843t23.086 7.54q13.59 0 21.17-5.144a31.817 31.817 0 0 0 11.326-13.393 55.057 55.057 0 0 0 4.53-18.8q.784-10.553.784-21.2 0-1.417 1.917-3.193a30.61 30.61 0 0 1 4.443-3.37q2.523-1.6 4.966-3.016a40.156 40.156 0 0 1 3.659-1.952q-1.214-.533-3.652-1.862zm-21.183 29a226.992 226.992 0 0 1-6.251 25.9 76.62 76.62 0 0 0 2.537-13.836q.678-7.271.678-14.014 0-6.207-.522-12.328c-.349-4.081-1.963-8.13-2.774-12.152a2.572 2.572 0 0 0 1.99-1.419 31.1 31.1 0 0 0 .784-3.282q.347-1.862.609-3.548c.174-1.123.261-1.8.261-2.04q1.139-8.868 1.519-17.562t.574-17.559q.347 8.872.7 17.561t1.394 17.562a16.638 16.638 0 0 0 .262 2.129q.261 1.6.61 3.459a29.722 29.722 0 0 0 .784 3.282c.289.948 1.924 1.419 2.159 1.419-1.051 8.87-3.739 17.682-5.315 26.432z" class="cls-1" data-name="Path 2" transform="translate(-696.921 530.091)"/>
        </g>
    </g>
    <g id="Group_4" data-name="Group 4" transform="translate(336.076 128.416)">
        <path id="Path_3" d="M1102.667-66.344l-1.805-11.969 7.687 9.352 10.826-5.416-6.518 10.2 8.5 8.623-11.72-3.046-5.575 10.746-.722-12.084-11.94-1.983z" class="cls-1" data-name="Path 3" transform="translate(-1091.397 295.685)"/>
        <path id="Path_4" d="M1162.93-204.342l-4.842-11.094 9.846 7.044 9.056-8.034-3.656 11.54 10.439 6.13-12.106.089-2.6 11.822-3.825-11.486-12.049 1.177z" class="cls-1" data-name="Path 4" transform="translate(-1130.419 382.903)"/>
        <path id="Path_5" d="M1186.7-357.9l-7.547-9.462 11.333 4.255 6.668-10.1-.545 12.092 11.67 3.219-11.671 3.219.545 12.094-6.667-10.105-11.334 4.257z" class="cls-1" data-name="Path 5" transform="translate(-1146.815 481.909)"/>
        <path id="Path_6" d="M1163.966-509.8l-9.74-7.187 12.048 1.177 3.826-11.49 2.6 11.821 12.105.089-10.44 6.13 3.656 11.541-9.055-8.035-9.846 7.044z" class="cls-1" data-name="Path 6" transform="translate(-1131.074 579.215)"/>
        <path id="Path_7" d="M1104.667-649.7l-11.267-4.421 11.942-1.981.723-12.084 5.575 10.745 11.716-3.047-8.5 8.622 6.519 10.2-10.827-5.417-7.687 9.353z" class="cls-1" data-name="Path 7" transform="translate(-1092.662 668.188)"/>
    </g>
    <g id="Group_5" data-name="Group 5" transform="translate(21.004 126.573)">
        <path id="Path_8" d="M340.589-71.344l1.805-11.969-7.687 9.352-10.826-5.416 6.518 10.2-8.5 8.623 11.72-3.046 5.575 10.746.722-12.084 11.943-1.981z" class="cls-1" data-name="Path 8" transform="translate(-290.394 300.685)"/>
        <path id="Path_9" d="M279.251-209.342l4.842-11.094-9.846 7.044-9.056-8.034 3.656 11.54-10.439 6.13 12.106.089 2.6 11.822 3.825-11.486 12.049 1.177z" class="cls-1" data-name="Path 9" transform="translate(-250.298 387.903)"/>
        <path id="Path_10" d="M257.977-362.9l7.548-9.462-11.334 4.262-6.668-10.1.545 12.092L236.4-362.9l11.671 3.219-.545 12.094 6.667-10.105 11.334 4.257z" class="cls-1" data-name="Path 10" transform="translate(-236.398 486.909)"/>
        <path id="Path_11" d="M278.217-514.8l9.74-7.187-12.048 1.177-3.827-11.49-2.6 11.821-12.105.089 10.44 6.13-3.656 11.541 9.055-8.035 9.846 7.044z" class="cls-1" data-name="Path 11" transform="translate(-249.644 584.215)"/>
        <path id="Path_12" d="M338.591-654.7l11.267-4.421-11.942-1.979-.723-12.084-5.575 10.745-11.718-3.051 8.5 8.622-6.519 10.2 10.827-5.417 7.687 9.353z" class="cls-1" data-name="Path 12" transform="translate(-289.131 673.188)"/>
    </g>
    <g id="Group_6" data-name="Group 6" transform="translate(84.772 351.255)">
        <path id="Path_13" d="M417.488-37.652h-7.346L412.1-39.3v-8.192a.833.833 0 0 0-.348-.558 6.052 6.052 0 0 0-.792-.59q-.444-.28-.887-.527t-.633-.341q.19-.124.633-.373a9.836 9.836 0 0 0 .9-.574 6.529 6.529 0 0 0 .792-.652.889.889 0 0 0 .332-.574v-7.137l-1.836-2.3h4.5a.873.873 0 0 1 .443.342l.412-.342h7.346a12.529 12.529 0 0 1 3.166.388 7.832 7.832 0 0 1 2.612 1.2 5.649 5.649 0 0 1 1.773 2.11 6.893 6.893 0 0 1 .649 3.1 6.673 6.673 0 0 1-1.441 4.329 6.679 6.679 0 0 1-4.006 2.312l6.492 9.285h-.1q.285.342.507.574a2.6 2.6 0 0 0 .459.388 2.245 2.245 0 0 0 .523.248 7.131 7.131 0 0 0 .728.186 3.032 3.032 0 0 1-1.583.435 3.257 3.257 0 0 1-1.33-.279 7.108 7.108 0 0 1-1.171-.652l-.348-.063a2.675 2.675 0 0 1-1.235.776 4.607 4.607 0 0 1-1.457.279 3.528 3.528 0 0 1-.966-.14 2.884 2.884 0 0 1-.886-.419 2.25 2.25 0 0 1-.633-.667 1.721 1.721 0 0 1-.237-.915 1.669 1.669 0 0 1 .332-1.07 1.233 1.233 0 0 1 1.029-.419 1.537 1.537 0 0 1 1.093.434 1.4 1.4 0 0 1 .459 1.055 1.55 1.55 0 0 1-.174.714q-.174.342-.332.682a1.643 1.643 0 0 0 .887-.387 1.576 1.576 0 0 0 .506-.761h-.032l-2.28-3.723-3.641-5.128h-6.808v8.006zm-3.737-2.854q0-2.3.206-4.609t.618-4.546c-.042 0-.084-.078-.127-.233s-.084-.336-.126-.544-.074-.4-.1-.573-.032-.3-.032-.357q-.19-1.582-.28-3.132t-.158-3.135q-.032 1.583-.1 3.135t-.253 3.134a3.085 3.085 0 0 1-.048.341c-.032.186-.069.378-.111.574s-.09.378-.143.543-.111.248-.174.248q.411 2.235.617 4.546t.211 4.608zm9.056-8.875a5.139 5.139 0 0 0 1.979-.372 4.685 4.685 0 0 0 1.551-1.024 4.63 4.63 0 0 0 1.013-1.552 5.173 5.173 0 0 0 .364-1.955 3.912 3.912 0 0 0-.443-1.8 5.533 5.533 0 0 0-1.156-1.536 5.819 5.819 0 0 0-1.615-1.071 4.5 4.5 0 0 0-1.853-.4h-7.124v9.712zm4.433-9.527a6.206 6.206 0 0 1 1.457 2.172 6.719 6.719 0 0 1 .538 2.576 6.674 6.674 0 0 1-.57 2.7 10.9 10.9 0 0 1-1.425 2.389 8.09 8.09 0 0 0 1.013-1.055 8.4 8.4 0 0 0 .839-1.257 7.572 7.572 0 0 0 .586-1.38 4.811 4.811 0 0 0 .221-1.427 4.7 4.7 0 0 0-.776-2.638 9.159 9.159 0 0 0-1.883-2.08z" class="cls-1" data-name="Path 13" transform="translate(-409.445 61.983)"/>
        <path id="Path_14" d="M475.188-45.569a1 1 0 0 0-.206-.554 4.3 4.3 0 0 0-.507-.6 7.669 7.669 0 0 0-.618-.554q-.317-.253-.507-.412.348-.126.887-.38t1.076-.538a7.385 7.385 0 0 0 .981-.617 1.978 1.978 0 0 0 .6-.649 27.713 27.713 0 0 0 1.5-3.563q.649-1.883 1.346-3.657l-.887-2.343h7.314l-.887 2.343 2.786 7.156 3.42 2.216-1.71 2.217 3.261 8.391 1.8 1.583H488.2l1.362-1.489-2.026-5.414H477.4l-2.026 5.383 1.33 1.52h-6.424l1.583-1.583q.1-.253.38-.95t.665-1.614q.38-.919.776-1.916t.728-1.852q.333-.855.554-1.44a3.849 3.849 0 0 0 .222-.684zm5.256-9.372q-.1.254-.364.9t-.618 1.456q-.349.808-.728 1.679t-.76 1.6q-.379.729-.68 1.187t-.46.459q-.443 2.28-1.076 4.56t-1.458 4.465q.824-2.185 1.837-4.306t2.216-4.148a.18.18 0 0 1-.063-.127 7.35 7.35 0 0 1 .253-1.583q.253-1.044.618-2.2t.728-2.249q.365-1.091.555-1.693zm2.027-1.457q-.1.222-.285.76t-.443 1.235q-.254.7-.538 1.472t-.523 1.441q-.238.665-.38 1.14a3.307 3.307 0 0 0-.143.57 1.115 1.115 0 0 0 .174.554 4.1 4.1 0 0 0 .411.585q.237.285.491.538t.443.412q-.349.159-.839.428t-1 .6a7.042 7.042 0 0 0-.9.7 1.575 1.575 0 0 0-.491.713h8.043a1.663 1.663 0 0 0-.475-.681 5.87 5.87 0 0 0-.87-.681 10.769 10.769 0 0 0-1-.57l-.823-.412.443-.443a6.147 6.147 0 0 0 .491-.554 3.891 3.891 0 0 0 .4-.6 1.206 1.206 0 0 0 .158-.554 5.349 5.349 0 0 0-.3-1.219q-.3-.934-.712-2.011t-.792-2.058q-.382-.985-.54-1.367zm2.153 1.457q.1.254.317.9t.491 1.488q.269.84.538 1.758t.475 1.71q.206.792.3 1.345t0 .649q1.171 2.026 2.2 4.148t1.852 4.306q-.824-2.185-1.456-4.465t-1.077-4.56q-.159 0-.475-.459a9.828 9.828 0 0 1-.681-1.187q-.364-.729-.76-1.6t-.744-1.679q-.349-.808-.617-1.456t-.363-.898z" class="cls-1" data-name="Path 14" transform="translate(-447.862 60.926)"/>
        <path id="Path_15" d="M526.448-41.955a10.082 10.082 0 0 1-.681-.792 4.155 4.155 0 0 0-.475-.538 1.9 1.9 0 0 0-.586-.364 4.461 4.461 0 0 0-.982-.237 2.926 2.926 0 0 1 1.71-.507 3.341 3.341 0 0 1 1.235.237 6.527 6.527 0 0 1 1.14.586l.348.063a2.725 2.725 0 0 1 1.267-.9 4.321 4.321 0 0 1 1.551-.332 3.1 3.1 0 0 1 1.8.569 1.881 1.881 0 0 1 .823 1.647 1.6 1.6 0 0 1-.332 1.061 1.268 1.268 0 0 1-1.029.4 1.516 1.516 0 0 1-1.093-.443 1.44 1.44 0 0 1-.459-1.077 1.777 1.777 0 0 1 .159-.712q.158-.364.317-.681a1.547 1.547 0 0 0-.934.459 1.542 1.542 0 0 0-.459.934 8.995 8.995 0 0 0 .886 2.391 4.464 4.464 0 0 0 1.314 1.472 4.772 4.772 0 0 0 1.853.744 13.619 13.619 0 0 0 2.533.206 13.177 13.177 0 0 0 2.406-.206 5.229 5.229 0 0 0 1.931-.744 3.631 3.631 0 0 0 1.283-1.472 5.516 5.516 0 0 0 .459-2.423 2.8 2.8 0 0 0-.633-1.9 4.813 4.813 0 0 0-1.694-1.2 13.487 13.487 0 0 0-2.391-.792l-2.739-.649a28.083 28.083 0 0 1-2.739-.792 9.55 9.55 0 0 1-2.391-1.2 5.572 5.572 0 0 1-1.694-1.883 5.876 5.876 0 0 1-.633-2.882 5.794 5.794 0 0 1 .776-3.135 5.954 5.954 0 0 1 2.026-1.979 8.667 8.667 0 0 1 2.818-1.044 16.822 16.822 0 0 1 3.182-.3 14.18 14.18 0 0 1 4.148.491 7.73 7.73 0 0 1 2.486 1.234 5.19 5.19 0 0 1 1.409 1.663q.474.919.886 1.742a6.807 6.807 0 0 0 .966 1.456 2.848 2.848 0 0 0 1.631.855 2.788 2.788 0 0 1-1.583.443 3.318 3.318 0 0 1-1.346-.269 6.342 6.342 0 0 1-1.187-.681l-.317-.063a2.4 2.4 0 0 1-.554.459 4.042 4.042 0 0 1-.713.348 4.033 4.033 0 0 1-.759.206 4.251 4.251 0 0 1-.7.063 3.291 3.291 0 0 1-.95-.143 2.921 2.921 0 0 1-.87-.427 2.21 2.21 0 0 1-.633-.7 1.859 1.859 0 0 1-.237-.949 1.674 1.674 0 0 1 .332-1.061 1.222 1.222 0 0 1 1.029-.427 1.518 1.518 0 0 1 1.092.443 1.441 1.441 0 0 1 .459 1.077 1.6 1.6 0 0 1-.174.727q-.174.349-.332.7a1.466 1.466 0 0 0 .934-.4 1.557 1.557 0 0 0 .491-.9 8.416 8.416 0 0 0-.807-1.932A3.433 3.433 0 0 0 539.9-57.6a4.389 4.389 0 0 0-1.551-.57 11.885 11.885 0 0 0-2.058-.158 12.429 12.429 0 0 0-2.137.174 4.728 4.728 0 0 0-1.726.633 3.247 3.247 0 0 0-1.156 1.282 4.674 4.674 0 0 0-.427 2.153 2.542 2.542 0 0 0 .649 1.8 5.039 5.039 0 0 0 1.694 1.156 13.016 13.016 0 0 0 2.391.76q1.346.3 2.755.633t2.755.791a8.718 8.718 0 0 1 2.391 1.235 6.042 6.042 0 0 1 1.694 1.948 6.022 6.022 0 0 1 .649 2.945 6.173 6.173 0 0 1-.855 3.372 6.548 6.548 0 0 1-2.217 2.154 9.541 9.541 0 0 1-3.071 1.14 17.886 17.886 0 0 1-3.419.332 15.307 15.307 0 0 1-3.182-.332 10.106 10.106 0 0 1-2.866-1.061 8.375 8.375 0 0 1-2.3-1.9 7.462 7.462 0 0 1-1.465-2.842zm5.668-7.694A7.212 7.212 0 0 1 530.2-51.5a4.147 4.147 0 0 1-.839-2.486 4 4 0 0 1 .221-1.33 5.317 5.317 0 0 1 .6-1.2 7.5 7.5 0 0 1 .855-1.061 11.379 11.379 0 0 1 .982-.9 7.967 7.967 0 0 0-1.124.919 9.543 9.543 0 0 0-1.013 1.156 6 6 0 0 0-.744 1.314 3.65 3.65 0 0 0-.285 1.393 2.926 2.926 0 0 0 .3 1.33 4.9 4.9 0 0 0 .76 1.108 5.75 5.75 0 0 0 1.045.9q.588.392 1.158.708zm9.182 2.628a8.211 8.211 0 0 1 1.045.807 5.5 5.5 0 0 1 .887 1.029 5.9 5.9 0 0 1 .618 1.2 3.667 3.667 0 0 1 .238 1.3 3.877 3.877 0 0 1-.222 1.314 5.457 5.457 0 0 1-.6 1.187 7.453 7.453 0 0 1-.855 1.06 11.131 11.131 0 0 1-.981.9 9.2 9.2 0 0 0 1.092-.919 9.544 9.544 0 0 0 1.013-1.155 6.029 6.029 0 0 0 .744-1.314A3.655 3.655 0 0 0 544.56-43a3.074 3.074 0 0 0-.285-1.33 4.321 4.321 0 0 0-.76-1.108 6.254 6.254 0 0 0-1.061-.9 10.313 10.313 0 0 0-1.154-.683z" class="cls-1" data-name="Path 15" transform="translate(-481.612 61.523)"/>
        <path id="Path_16" d="M628.444-40.453q-.474-.475-.759-.823a4.356 4.356 0 0 0-.57-.586 2.515 2.515 0 0 0-.681-.4 3.948 3.948 0 0 0-1.061-.222 3 3 0 0 1 1.868-.6 3.307 3.307 0 0 1 1.156.206 9.206 9.206 0 0 1 1.092.491h.38a2.927 2.927 0 0 1 1.33-.95 4.407 4.407 0 0 1 1.583-.349 2.964 2.964 0 0 1 1.773.57 1.873 1.873 0 0 1 .792 1.615 1.44 1.44 0 0 1-.347 1.017 1.306 1.306 0 0 1-1.013.38 1.515 1.515 0 0 1-1.092-.443 1.44 1.44 0 0 1-.459-1.077 1.877 1.877 0 0 1 .143-.681q.143-.364.237-.649a1.565 1.565 0 0 0-.918.523 1.416 1.416 0 0 0-.38.966 4.493 4.493 0 0 0 .254 1.488 3.922 3.922 0 0 0 .728 1.277 3.873 3.873 0 0 0 1.124.9 2.994 2.994 0 0 0 1.441.348 3.121 3.121 0 0 0 1.836-.491 3.03 3.03 0 0 0 1.045-1.282 6.044 6.044 0 0 0 .459-1.741 16.055 16.055 0 0 0 .111-1.868v-3.008a.852.852 0 0 0-.348-.57 5.979 5.979 0 0 0-.792-.6q-.443-.285-.887-.523t-.665-.332l.665-.38q.443-.253.887-.554a7.115 7.115 0 0 0 .792-.617.853.853 0 0 0 .348-.57v-7.283l-2.058-2.343h7.314l-1.836 2.216v7.5a.806.806 0 0 0 .348.554 6.316 6.316 0 0 0 .807.585q.459.285.9.523t.665.333a7.334 7.334 0 0 0-.665.348q-.443.254-.9.538a5.5 5.5 0 0 0-.807.6.851.851 0 0 0-.348.57q0 1.9-.143 3.783a9.68 9.68 0 0 1-.824 3.356 5.7 5.7 0 0 1-2.058 2.391 6.884 6.884 0 0 1-3.847.918 6.452 6.452 0 0 1-4.2-1.346 7.633 7.633 0 0 1-2.42-3.708zm10.561 2.026a39.819 39.819 0 0 0 1.136-4.623q.43-2.343.715-4.718c-.043 0-.09-.084-.143-.253a5.172 5.172 0 0 1-.143-.586c-.042-.222-.079-.427-.111-.617a2.894 2.894 0 0 1-.047-.38q-.19-1.584-.254-3.135t-.127-3.135q-.035 1.584-.1 3.135t-.276 3.135c0 .042-.016.163-.048.364s-.069.411-.111.633a5.425 5.425 0 0 1-.142.586c-.053.169-.111.253-.174.253a18.965 18.965 0 0 1 .317 2.169q.1 1.093.1 2.2 0 1.2-.123 2.5a13.424 13.424 0 0 1-.469 2.472z" class="cls-1" data-name="Path 16" transform="translate(-545.802 61.034)"/>
        <path id="Path_17" d="M677.71-45.569a1 1 0 0 0-.206-.554 4.35 4.35 0 0 0-.507-.6 7.727 7.727 0 0 0-.618-.554q-.317-.253-.507-.412.348-.126.887-.38t1.077-.538a7.409 7.409 0 0 0 .981-.617 1.979 1.979 0 0 0 .6-.649 27.761 27.761 0 0 0 1.5-3.563q.649-1.883 1.346-3.657l-.887-2.343h7.324l-.89 2.336 2.787 7.156 3.42 2.216-1.71 2.217 3.261 8.391 1.805 1.583h-6.65l1.362-1.489-2.026-5.414h-10.133l-2.026 5.388 1.33 1.52h-6.43l1.583-1.583q.1-.253.38-.95t.665-1.614q.379-.919.775-1.916t.729-1.852q.332-.855.554-1.44a3.829 3.829 0 0 0 .224-.682zm5.256-9.372q-.1.254-.364.9t-.618 1.456q-.349.808-.729 1.679t-.76 1.6q-.38.729-.681 1.187t-.459.459q-.444 2.28-1.077 4.56t-1.456 4.465q.823-2.185 1.836-4.306t2.217-4.148a.18.18 0 0 1-.063-.127 7.355 7.355 0 0 1 .253-1.583q.253-1.044.617-2.2t.728-2.249q.365-1.091.556-1.693zm2.027-1.457q-.1.222-.285.76t-.443 1.235q-.254.7-.538 1.472t-.527 1.441q-.237.665-.38 1.14a3.309 3.309 0 0 0-.143.57 1.119 1.119 0 0 0 .174.554 4.139 4.139 0 0 0 .411.585q.238.285.491.538t.443.412q-.348.159-.839.428t-1 .6a7.041 7.041 0 0 0-.9.7 1.575 1.575 0 0 0-.491.713h8.043a1.67 1.67 0 0 0-.475-.681 5.907 5.907 0 0 0-.87-.681 10.757 10.757 0 0 0-1-.57l-.824-.412.443-.443a6.114 6.114 0 0 0 .491-.554 3.923 3.923 0 0 0 .4-.6 1.205 1.205 0 0 0 .158-.554 5.34 5.34 0 0 0-.3-1.219q-.3-.934-.713-2.011t-.792-2.058q-.376-.985-.534-1.367zm2.153 1.457q.095.254.317.9t.49 1.488q.269.84.538 1.758t.475 1.71q.206.792.3 1.345t0 .649q1.171 2.026 2.2 4.148t1.852 4.306q-.824-2.185-1.456-4.465t-1.077-4.56q-.159 0-.475-.459a9.845 9.845 0 0 1-.68-1.187q-.364-.729-.76-1.6t-.744-1.679q-.349-.808-.617-1.456t-.363-.898z" class="cls-1" data-name="Path 17" transform="translate(-575.753 60.926)"/>
        <path id="Path_18" d="M741.11-47.659a7.342 7.342 0 0 0 .665-.348 10.216 10.216 0 0 0 .887-.57 8.522 8.522 0 0 0 .792-.633.852.852 0 0 0 .348-.57v-7.378l-1.837-2.28h7.093l-1.837 2.375v7.916h11.146v-8.011l-1.868-2.28h7.124l-1.836 2.311v7.283q0 .126.364.443t.839.68q.475.365.9.665t.554.4a7.394 7.394 0 0 0-.665.349q-.444.254-.886.554a6.079 6.079 0 0 0-.776.617.862.862 0 0 0-.332.57v8.549l1.995 1.489h-7.44l2.027-1.489v-9.087h-11.146v8.961l1.963 1.615h-7.378l2-1.489v-8.549a.853.853 0 0 0-.348-.57 7.218 7.218 0 0 0-.792-.617q-.443-.3-.887-.554c-.3-.172-.522-.293-.669-.352zm4.4 9.4q0-2.343.206-4.7t.618-4.639c-.043 0-.085-.084-.127-.253s-.084-.359-.126-.57-.079-.412-.111-.6a3.252 3.252 0 0 1-.047-.348q-.19-1.584-.269-3.167t-.142-3.2q-.032 1.615-.1 3.2t-.254 3.167a3.292 3.292 0 0 1-.047.348c-.032.189-.069.391-.111.6a5.729 5.729 0 0 1-.143.57c-.053.169-.111.253-.174.253q.411 2.28.618 4.639t.21 4.704zm14.5 0q0-2.343.206-4.7t.618-4.639c-.043 0-.085-.084-.127-.253s-.085-.359-.127-.57-.079-.412-.111-.6a3.233 3.233 0 0 1-.048-.348q-.19-1.584-.269-3.167t-.143-3.2q-.031 1.615-.079 3.2a29.2 29.2 0 0 1-.269 3.167 3.237 3.237 0 0 1-.047.348c-.032.189-.069.391-.111.6a5.668 5.668 0 0 1-.142.57c-.053.169-.111.253-.174.253q.411 2.28.618 4.639t.208 4.704z" class="cls-1" data-name="Path 18" transform="translate(-618.889 60.926)"/>
        <path id="Path_19" d="M818.758-38.652l-8.55-10.7-2.786 2.185v7.567l1.995 1.52h-7.41l2-1.489v-8.517a.913.913 0 0 0-.333-.586 5.711 5.711 0 0 0-.792-.649q-.459-.317-.9-.57t-.633-.38q.19-.095.633-.348t.9-.554a5.544 5.544 0 0 0 .792-.617.861.861 0 0 0 .333-.57v-7.347l-1.837-2.248h7.124l-1.868 2.216v9.339l10.1-10.892a1.759 1.759 0 0 0-.411-.95 1.462 1.462 0 0 0-.887-.507 6.045 6.045 0 0 0 .237.649 1.709 1.709 0 0 1 .143.681 1.439 1.439 0 0 1-.459 1.076 1.518 1.518 0 0 1-1.093.443 1.305 1.305 0 0 1-1.013-.38 1.437 1.437 0 0 1-.348-1.013 1.872 1.872 0 0 1 .792-1.615 2.961 2.961 0 0 1 1.773-.57 4.41 4.41 0 0 1 1.631.364 2.8 2.8 0 0 1 1.314.966l.063.032a3.234 3.234 0 0 0 1.219-.427 2.506 2.506 0 0 1 1.314-.333 3 3 0 0 1 1.868.6q-.539.064-.95.143a1.564 1.564 0 0 0-.823.523l-9.5 10.069 10.639 12.919a4.564 4.564 0 0 0 .475.38 2.25 2.25 0 0 0 .38.206 1.705 1.705 0 0 0 .428.111c.158.021.353.042.586.063a2.957 2.957 0 0 1-1.837.6 2.422 2.422 0 0 1-1.314-.348 3.083 3.083 0 0 0-1.219-.444h-.1a2.725 2.725 0 0 1-1.3 1 4.311 4.311 0 0 1-1.615.364 2.963 2.963 0 0 1-1.773-.569 1.873 1.873 0 0 1-.792-1.615 1.443 1.443 0 0 1 .348-1.013 1.307 1.307 0 0 1 1.013-.38 1.52 1.52 0 0 1 1.092.443 1.443 1.443 0 0 1 .459 1.077 1.764 1.764 0 0 1-.142.665c-.1.231-.185.443-.269.633a1.474 1.474 0 0 0 .839-.412 1.528 1.528 0 0 0 .464-.791zm-12.982-2.217a53.876 53.876 0 0 1 .823-9.341c-.042 0-.084-.079-.126-.237s-.09-.343-.143-.554-.1-.412-.127-.6a3.233 3.233 0 0 1-.048-.348q-.19-1.615-.253-3.183t-.127-3.182q-.032 1.615-.1 3.182t-.253 3.183a3.252 3.252 0 0 1-.047.348c-.032.189-.069.385-.111.585s-.09.386-.142.554-.111.253-.174.253a53.947 53.947 0 0 1 .828 9.34z" class="cls-1" data-name="Path 19" transform="translate(-656.926 63.477)"/>
        <path id="Path_20" d="M861.087-45.443a.9.9 0 0 0-.348-.586 7.386 7.386 0 0 0-.792-.649q-.443-.316-.887-.57c-.3-.168-.517-.285-.664-.349q.221-.126.664-.4t.887-.586a6.181 6.181 0 0 0 .792-.664.953.953 0 0 0 .348-.6v-7.568l-1.52-2.026h8.265l-1.552 1.995 10.512 17.764v-5.763a.925.925 0 0 0-.317-.523 5.8 5.8 0 0 0-.744-.649q-.427-.316-.839-.6a5.784 5.784 0 0 0-.6-.38 6.84 6.84 0 0 0 .6-.364q.411-.269.839-.586a6.528 6.528 0 0 0 .744-.633.866.866 0 0 0 .317-.538l-.032-7.694-1.488-2.026h6.111l-1.52 2.026v7.694a.946.946 0 0 0 .333.649 4.651 4.651 0 0 0 .775.617q.443.285.9.523a7.079 7.079 0 0 0 .713.332l-.665.38q-.443.254-.9.554a5.666 5.666 0 0 0-.807.633.9.9 0 0 0-.349.586v8.264l1.551 1.647h-7.757l1.172-1.52-10.671-18.11v5.351a.965.965 0 0 0 .333.6 5.711 5.711 0 0 0 .792.68q.459.333.9.6t.665.4a7.39 7.39 0 0 0-.665.348q-.444.254-.9.554a5.6 5.6 0 0 0-.792.618.861.861 0 0 0-.333.57v8.264l1.552 1.647h-6.21l1.583-1.583zm2.343-2.185c-.043 0-.085-.084-.127-.253s-.085-.353-.127-.554-.079-.4-.111-.585a3.252 3.252 0 0 1-.047-.348q-.19-1.615-.269-3.2t-.143-3.2q-.031 1.615-.1 3.2t-.253 3.2a3.252 3.252 0 0 1-.047.348c-.032.189-.069.385-.111.585s-.09.386-.142.554-.111.253-.174.253q.411 2.28.618 4.639t.206 4.7q0-2.343.206-4.7t.622-4.639zm14.787 9.4q0-2.343.205-4.7t.618-4.639q-.064 0-.127-.237a5.065 5.065 0 0 1-.111-.554c-.031-.21-.063-.412-.095-.6a2.9 2.9 0 0 1-.047-.38q-.19-1.584-.285-3.167t-.158-3.2q-.033 1.615-.1 3.2t-.253 3.167a3.267 3.267 0 0 1-.048.348c-.032.189-.068.391-.111.6a5.8 5.8 0 0 1-.143.57c-.053.169-.111.253-.174.253q.411 2.28.618 4.639t.212 4.705z" class="cls-1" data-name="Path 20" transform="translate(-692.955 60.926)"/>
        <path id="Path_21" d="M935.68-60.383a11.067 11.067 0 0 1 7.742 2.58 12.036 12.036 0 0 1 3.562 7.362 1.152 1.152 0 0 0 .38.7 5.361 5.361 0 0 0 .792.649 9.739 9.739 0 0 0 .919.554 8.15 8.15 0 0 0 .791.38q-.349.128-.807.348t-.9.491a4.125 4.125 0 0 0-.776.6 1.309 1.309 0 0 0-.4.713 19.607 19.607 0 0 1-1.33 4.259 10.506 10.506 0 0 1-2.216 3.213 9.036 9.036 0 0 1-3.277 2.027 13.207 13.207 0 0 1-4.512.7 12.627 12.627 0 0 1-5.952-1.393 9.4 9.4 0 0 1-4.117-4.4 10.033 10.033 0 0 1-.807-2.28q-.237-1.108-.491-2.343a1.211 1.211 0 0 0-.412-.633 4.489 4.489 0 0 0-.792-.57q-.444-.253-.887-.459a7.432 7.432 0 0 0-.728-.3q.316-.126.792-.332a6.379 6.379 0 0 0 .918-.491 5.338 5.338 0 0 0 .792-.617 1.283 1.283 0 0 0 .412-.713 17.478 17.478 0 0 1 1.266-4.29 9.625 9.625 0 0 1 2.232-3.151 9.3 9.3 0 0 1 3.309-1.931 13.809 13.809 0 0 1 4.497-.673zm-7.6 4.37q-.1.221-.317.871t-.522 1.488q-.3.84-.649 1.773t-.649 1.726q-.3.792-.538 1.314a1.96 1.96 0 0 1-.332.586 19.1 19.1 0 0 0 .506 2.375 23.715 23.715 0 0 0 .855 2.533 20.42 20.42 0 0 0 1.156 2.423 9 9 0 0 0 1.473 1.979 6.414 6.414 0 0 1-1.077-1.662 15.627 15.627 0 0 1-.76-2.011 13.443 13.443 0 0 1-.46-2.089 14.63 14.63 0 0 1-.142-1.963 12.768 12.768 0 0 1 .1-1.583c-.063-.042-.085-.174-.063-.4s.032-.353.032-.4a31.676 31.676 0 0 1 .523-3.514q.357-1.768.865-3.446zm2.375 7.725c-.19.063-.438.164-.744.3a7.255 7.255 0 0 0-.887.475 4.252 4.252 0 0 0-.744.586.937.937 0 0 0-.317.665 2.7 2.7 0 0 0 .063.507q.064.317.143.665c.053.233.111.458.174.68s.116.4.158.523a14.851 14.851 0 0 0 1 2.565 8.967 8.967 0 0 0 1.52 2.184 7.089 7.089 0 0 0 2.089 1.52 6.254 6.254 0 0 0 2.739.57 6.325 6.325 0 0 0 2.708-.554 6.78 6.78 0 0 0 2.074-1.488 9.414 9.414 0 0 0 1.52-2.152 13.71 13.71 0 0 0 1.013-2.549c.042-.127.095-.3.158-.507s.121-.432.174-.664.1-.454.143-.665a2.741 2.741 0 0 0 .063-.507.96.96 0 0 0-.3-.665 3.8 3.8 0 0 0-.728-.586 7.889 7.889 0 0 0-.871-.475q-.443-.206-.728-.333.316-.126.76-.348a7 7 0 0 0 .855-.507 3.368 3.368 0 0 0 .7-.633 1.137 1.137 0 0 0 .285-.728 7.638 7.638 0 0 0-.618-3.008A8.5 8.5 0 0 0 941.158-56a8.6 8.6 0 0 0-2.486-1.805 6.8 6.8 0 0 0-2.992-.681 5.862 5.862 0 0 0-2.8.76 9.773 9.773 0 0 0-2.517 1.948 10.6 10.6 0 0 0-1.8 2.628 6.416 6.416 0 0 0-.7 2.8 1.012 1.012 0 0 0 .3.681 3.243 3.243 0 0 0 .712.585 7.914 7.914 0 0 0 .855.459q.44.211.725.337zm-2.375-7.725l.19-.507.031-.1-.031.1-.063.126zm15.167.126q.506 1.679.871 3.451t.554 3.514c0 .042.011.174.032.4s0 .354-.063.4a12.745 12.745 0 0 1 .1 1.583 14.538 14.538 0 0 1-.143 1.963 13.44 13.44 0 0 1-.459 2.09 14.43 14.43 0 0 1-.776 2.011 7.348 7.348 0 0 1-1.063 1.655 10.1 10.1 0 0 0 1.457-1.979 17.629 17.629 0 0 0 1.156-2.423 26.336 26.336 0 0 0 .839-2.533q.348-1.266.538-2.375a2.07 2.07 0 0 1-.348-.586q-.254-.522-.554-1.313t-.649-1.726q-.349-.934-.649-1.773t-.538-1.488q-.241-.649-.304-.871zm0 0l-.127-.38-.032-.127-.032-.095h-.031l.031.031.032.127z" class="cls-1" data-name="Path 21" transform="translate(-732.781 61.523)"/>
        <path id="Path_22" d="M991.374-47.564a6.444 6.444 0 0 0 .57-.38 7.944 7.944 0 0 0 .681-.554 5.323 5.323 0 0 0 .586-.617.955.955 0 0 0 .253-.57q-.285-1.014-.491-1.773t-.475-1.663q-.269-.9-.506-1.709t-.412-1.441l-.238-.855-1.742-2.312h6.459l-1.171 2.28q1.2 4.5 2.391 8.945t2.264 8.978q1.234-5.1 2.581-10.117t2.675-10.085h3.2q1.52 5 2.787 10.085t2.47 10.148l4.623-17.859-1.361-2.375h6.681l-1.773 2.28q-.064.254-.253.871t-.428 1.441q-.237.824-.491 1.694t-.459 1.631l-.348 1.282a5.123 5.123 0 0 0-.143.586 1.212 1.212 0 0 0 .222.681 2.686 2.686 0 0 0 .554.6 4.582 4.582 0 0 0 .712.475q.38.206.665.332-.349.128-.855.333a9.54 9.54 0 0 0-1 .475 9.839 9.839 0 0 0-.918.57 1.48 1.48 0 0 0-.554.618 15.018 15.018 0 0 0-.633 1.836q-.317 1.109-.633 2.327t-.618 2.406q-.3 1.188-.554 2.043l1.551 1.425h-7.852l1.583-1.425q-1.172-4.528-2.343-8.992t-2.216-9.024q-1.109 4.528-2.28 8.992t-2.311 8.992l1.583 1.457h-7.884l1.552-1.425q-.254-.886-.554-2.058t-.621-2.375q-.317-1.2-.633-2.3t-.6-1.82a1.951 1.951 0 0 0-.57-.633 8.432 8.432 0 0 0-.9-.6 7.982 7.982 0 0 0-1-.491zm1.995-8.137q.063.316.238.966t.364 1.488q.19.84.38 1.742t.317 1.694q.126.791.158 1.361a1.4 1.4 0 0 1-.095.76q1.013 2.123 1.836 4.322t1.456 4.449q-.633-2.248-1.045-4.56t-.665-4.655c-.084 0-.206-.163-.364-.491s-.338-.743-.538-1.25-.412-1.061-.633-1.663-.427-1.182-.617-1.742-.354-1.06-.491-1.5-.238-.753-.301-.92zm26 .1q-.1.254-.3.918t-.507 1.5q-.3.84-.618 1.742t-.618 1.663q-.3.76-.554 1.25t-.38.491q-.222 2.344-.649 4.655t-1.061 4.56q.634-2.248 1.457-4.449t1.837-4.322a.228.228 0 0 1-.095-.206v-.238a12.684 12.684 0 0 1 .143-1.852q.143-.966.364-1.948t.491-1.931q.263-.952.486-1.839z" class="cls-1" data-name="Path 22" transform="translate(-775.81 60.926)"/>
    </g>
    <g id="Group_7" data-name="Group 7" transform="translate(313.031 152.604)">
        <path id="Path_23" d="M1047.454-590.732v66.482l.146.444c.3.369 1.517.132 2.009.091 13.615-1.137 27.64 5.665 34.9 16.925.5.778.989 1.63 1.526 2.667-.538 1.037-1.027 1.89-1.526 2.665-7.26 11.261-21.284 18.064-34.9 16.928-.491-.042-1.712-.433-2.008-.066l-.146.6v65a11.742 11.742 0 0 0 5.407 10.039c3.717 2.474 8.962 2.354 12.2-.281a8.52 8.52 0 0 0 3.019-6.029 7.508 7.508 0 0 0-2.021-5.734 6.894 6.894 0 0 0-5.455-2.12 5.834 5.834 0 0 0-3.613 1.707 2.707 2.707 0 0 0-1.5 2.417 2.781 2.781 0 0 0 2.816 2.739 2.783 2.783 0 0 0 2.818-2.739 2.641 2.641 0 0 0-.335-1.292l.079-.008a3.963 3.963 0 0 1 3.074 1.245 4.627 4.627 0 0 1 1.227 3.621 5.656 5.656 0 0 1-1.977 4.017 7.59 7.59 0 0 1-8.685.116 9 9 0 0 1-4.137-7.7v-62.638c14.339.813 28.989-6.492 36.609-18.312.183-.282.368-.58.559-.9a36.508 36.508 0 0 1-.183 27.283 1.46 1.46 0 0 0-.188.429l-.02.063a33.835 33.835 0 0 1-2.174 4.215c-4.006 6.556-11.9 12.607-19.755 10.4a11.937 11.937 0 0 1-8.13-7.969 11.535 11.535 0 0 1 2.683-10.918c3.24-3.434 8.805-4.449 12.668-2.309a8.516 8.516 0 0 1 4.009 5.464 7.836 7.836 0 0 1 .075 3.346 2.846 2.846 0 0 0-.8-.116 2.782 2.782 0 0 0-2.818 2.74 2.782 2.782 0 0 0 2.818 2.739 2.8 2.8 0 0 0 2.762-2.257 10.134 10.134 0 0 0 .8-7.088 11.414 11.414 0 0 0-5.408-7.293c-5.076-2.813-12.066-1.585-16.257 2.856a14.363 14.363 0 0 0-3.342 13.6 14.874 14.874 0 0 0 10.128 9.927 15.443 15.443 0 0 0 6.581.384 54.8 54.8 0 0 0-6.921 6.157c-4.787 5.218-6.981 10.185-6.027 15.568a11.619 11.619 0 0 0 4.357 7.405 9 9 0 0 0 8.937 1.15 6.929 6.929 0 0 0 3.9-8.047 6.085 6.085 0 0 0-3.612-3.7 6.051 6.051 0 0 0-3.1-.375 2.2 2.2 0 0 0-.267-.021 2.782 2.782 0 0 0-2.816 2.741 2.783 2.783 0 0 0 2.816 2.74 2.8 2.8 0 0 0 2.767-2.218 3.05 3.05 0 0 1 1.421 1.67 4.144 4.144 0 0 1-2.348 4.643 6.072 6.072 0 0 1-5.933-.835 8.942 8.942 0 0 1-3.252-5.634c-.815-4.523 1.134-8.625 5.328-13.2a66.042 66.042 0 0 1 8.858-7.581c1.412-1.071 2.873-2.179 4.28-3.327 5.755-4.7 9.095-9.113 10.489-13.833a39.282 39.282 0 0 0 3.12-15.377v-.005a39.28 39.28 0 0 0-3.7-16.694 39.275 39.275 0 0 0 3.7-16.695 39.181 39.181 0 0 0-3.1-15.323c-1.415-4.78-4.755-9.193-10.51-13.891-1.405-1.149-2.867-2.257-4.32-3.359a65.577 65.577 0 0 1-8.818-7.552c-4.193-4.569-6.137-7.931-5.328-12.451a8.941 8.941 0 0 1 3.252-5.635 6.077 6.077 0 0 1 5.933-.836 4.1 4.1 0 0 1 2.348 4.643 3.05 3.05 0 0 1-1.421 1.671 2.8 2.8 0 0 0-2.767-2.217 2.782 2.782 0 0 0-2.816 2.739 2.783 2.783 0 0 0 2.816 2.741 2.052 2.052 0 0 0 .266-.021 6.043 6.043 0 0 0 3.1-.374 6.083 6.083 0 0 0 3.612-3.7 6.929 6.929 0 0 0-3.9-8.047 9 9 0 0 0-8.937 1.15 11.628 11.628 0 0 0-4.356 7.4c-.954 5.385 1.24 9.607 6.027 14.826a54.907 54.907 0 0 0 6.919 6.157 15.461 15.461 0 0 0-6.58.383 14.875 14.875 0 0 0-10.128 9.929 14.371 14.371 0 0 0 3.342 13.6c4.193 4.44 11.182 5.668 16.257 2.854a11.412 11.412 0 0 0 5.408-7.293 10.125 10.125 0 0 0-.8-7.089 2.8 2.8 0 0 0-2.762-2.256 2.782 2.782 0 0 0-2.818 2.74 2.782 2.782 0 0 0 2.818 2.741 2.861 2.861 0 0 0 .8-.116 7.87 7.87 0 0 1-.078 3.345 8.517 8.517 0 0 1-4.009 5.464c-3.861 2.14-9.426 1.126-12.668-2.307a11.551 11.551 0 0 1-2.683-10.92 11.94 11.94 0 0 1 8.13-7.968c7.858-2.207 15.748 3.843 19.755 10.4a34.1 34.1 0 0 1 2.162 4.175l.052.172a1.307 1.307 0 0 0 .17.365 36.484 36.484 0 0 1 .182 27.279c-.19-.316-.375-.615-.558-.9-7.621-11.82-22.27-19.125-36.61-18.311v-64.126a9 9 0 0 1 4.138-7.7 7.584 7.584 0 0 1 8.683.116 5.661 5.661 0 0 1 1.977 4.02 4.651 4.651 0 0 1-1.227 3.619 3.971 3.971 0 0 1-3.074 1.246l-.079-.009a2.639 2.639 0 0 0 .335-1.293 2.783 2.783 0 0 0-2.818-2.74 2.782 2.782 0 0 0-2.816 2.74 2.705 2.705 0 0 0 1.5 2.417 5.843 5.843 0 0 0 3.614 1.708 6.893 6.893 0 0 0 5.454-2.122 7.49 7.49 0 0 0 2.021-5.734 8.514 8.514 0 0 0-3.019-6.025c-3.239-2.638-8.485-2.76-12.2-.284a11.743 11.743 0 0 0-5.403 10.047z" class="cls-1" data-name="Path 23" transform="translate(-1040.603 602.55)"/>
        <path id="Rectangle_3" d="M0 0H2.541V161.527H0z" class="cls-1" data-name="Rectangle 3" transform="translate(0 23.705)"/>
        <path id="Path_24" d="M1265.322-342.33l1.508 1.125c1.171.872 7.17 5.222 10.3 5.222a6.446 6.446 0 0 0 6.527-6.347 6.447 6.447 0 0 0-6.527-6.349c-3.124 0-9.127 4.35-10.3 5.223zm11.807-3.513a3.567 3.567 0 0 1 3.611 3.513 3.566 3.566 0 0 1-3.611 3.511c-1.073 0-3.869-1.422-6.939-3.511 3.07-2.091 5.866-3.513 6.939-3.513z" class="cls-1" data-name="Path 24" transform="translate(-1178.185 442.232)"/>
        <path id="Path_25" d="M1081.129-354.371l-1.509-1.126c-1.364-1.016-13.49-9.915-19.261-9.915a11.211 11.211 0 0 0-11.351 11.041 11.213 11.213 0 0 0 11.351 11.042c5.793 0 17.9-8.9 19.261-9.916zm-20.77 8.205a8.332 8.332 0 0 1-8.435-8.205 8.333 8.333 0 0 1 8.435-8.206c3.41 0 11.335 4.962 15.932 8.206-4.597 3.243-12.522 8.205-15.932 8.205z" class="cls-1" data-name="Path 25" transform="translate(-1041.584 452.799)"/>
    </g>
    <g id="Group_8" data-name="Group 8" transform="translate(0 152.604)">
        <path id="Path_26" d="M371.987-590.732v66.482l-.146.444c-.3.369-1.517.132-2.009.091-13.615-1.137-27.64 5.665-34.9 16.925-.5.778-.989 1.63-1.527 2.667.538 1.037 1.027 1.89 1.527 2.665 7.26 11.261 21.284 18.064 34.9 16.928.491-.042 1.712-.433 2.008-.066l.146.6v65a11.742 11.742 0 0 1-5.407 10.039c-3.717 2.474-8.963 2.354-12.2-.281a8.52 8.52 0 0 1-3.018-6.029 7.508 7.508 0 0 1 2.02-5.734 6.9 6.9 0 0 1 5.455-2.12 5.834 5.834 0 0 1 3.613 1.707 2.707 2.707 0 0 1 1.5 2.417 2.781 2.781 0 0 1-2.817 2.739 2.782 2.782 0 0 1-2.814-2.742 2.637 2.637 0 0 1 .335-1.292l-.079-.008a3.965 3.965 0 0 0-3.075 1.245 4.63 4.63 0 0 0-1.227 3.621 5.658 5.658 0 0 0 1.977 4.017 7.591 7.591 0 0 0 8.685.116 9 9 0 0 0 4.136-7.7v-62.638c-14.339.813-28.989-6.492-36.609-18.312-.183-.282-.368-.58-.559-.9a36.507 36.507 0 0 0 .183 27.283 1.457 1.457 0 0 1 .188.429l.02.063a33.872 33.872 0 0 0 2.174 4.215c4.006 6.556 11.9 12.607 19.754 10.4a11.938 11.938 0 0 0 8.131-7.969 11.536 11.536 0 0 0-2.683-10.918c-3.241-3.434-8.806-4.449-12.668-2.309a8.515 8.515 0 0 0-4.009 5.464 7.828 7.828 0 0 0-.076 3.346 2.844 2.844 0 0 1 .8-.116 2.782 2.782 0 0 1 2.817 2.74 2.782 2.782 0 0 1-2.817 2.739 2.8 2.8 0 0 1-2.762-2.257 10.129 10.129 0 0 1-.8-7.088 11.413 11.413 0 0 1 5.408-7.293c5.076-2.813 12.066-1.585 16.257 2.856a14.363 14.363 0 0 1 3.342 13.6 14.874 14.874 0 0 1-10.128 9.927 15.444 15.444 0 0 1-6.581.384 54.786 54.786 0 0 1 6.921 6.157c4.787 5.218 6.981 10.185 6.027 15.568a11.619 11.619 0 0 1-4.357 7.405 9 9 0 0 1-8.937 1.15 6.928 6.928 0 0 1-3.9-8.047 6.084 6.084 0 0 1 3.612-3.7 6.051 6.051 0 0 1 3.1-.375 2.191 2.191 0 0 1 .266-.021 2.782 2.782 0 0 1 2.816 2.745 2.783 2.783 0 0 1-2.816 2.74 2.8 2.8 0 0 1-2.767-2.218 3.052 3.052 0 0 0-1.421 1.67 4.144 4.144 0 0 0 2.348 4.643 6.073 6.073 0 0 0 5.933-.835 8.94 8.94 0 0 0 3.251-5.634c.815-4.523-1.134-8.625-5.328-13.2a66.032 66.032 0 0 0-8.857-7.581c-1.412-1.071-2.873-2.179-4.28-3.327-5.755-4.7-9.1-9.113-10.489-13.833a39.282 39.282 0 0 1-3.12-15.377v-.005a39.285 39.285 0 0 1 3.7-16.694 39.28 39.28 0 0 1-3.7-16.695 39.187 39.187 0 0 1 3.1-15.323c1.415-4.78 4.756-9.193 10.511-13.891 1.4-1.149 2.867-2.257 4.32-3.359a65.569 65.569 0 0 0 8.818-7.552c4.193-4.569 6.137-7.931 5.328-12.451a8.939 8.939 0 0 0-3.251-5.635 6.077 6.077 0 0 0-5.933-.836 4.1 4.1 0 0 0-2.348 4.643 3.052 3.052 0 0 0 1.421 1.671 2.8 2.8 0 0 1 2.767-2.217 2.782 2.782 0 0 1 2.813 2.74 2.783 2.783 0 0 1-2.816 2.741 2.05 2.05 0 0 1-.266-.021 6.042 6.042 0 0 1-3.1-.374 6.082 6.082 0 0 1-3.612-3.7 6.929 6.929 0 0 1 3.9-8.047 9 9 0 0 1 8.937 1.15 11.628 11.628 0 0 1 4.356 7.4c.954 5.385-1.24 9.607-6.027 14.826a54.918 54.918 0 0 1-6.919 6.157 15.462 15.462 0 0 1 6.58.383 14.875 14.875 0 0 1 10.128 9.929 14.371 14.371 0 0 1-3.342 13.6c-4.193 4.44-11.182 5.668-16.257 2.854a11.41 11.41 0 0 1-5.408-7.293 10.122 10.122 0 0 1 .8-7.089 2.8 2.8 0 0 1 2.762-2.256 2.782 2.782 0 0 1 2.817 2.74 2.782 2.782 0 0 1-2.817 2.741 2.859 2.859 0 0 1-.8-.116 7.862 7.862 0 0 0 .078 3.345 8.516 8.516 0 0 0 4.006 5.468c3.86 2.14 9.426 1.126 12.668-2.307a11.552 11.552 0 0 0 2.683-10.92 11.941 11.941 0 0 0-8.131-7.968c-7.858-2.207-15.748 3.843-19.754 10.4a33.994 33.994 0 0 0-2.162 4.175l-.052.172a1.287 1.287 0 0 1-.17.365 36.485 36.485 0 0 0-.182 27.274c.19-.316.375-.615.558-.9 7.621-11.82 22.27-19.125 36.61-18.311v-64.126a9 9 0 0 0-4.138-7.7 7.585 7.585 0 0 0-8.683.116 5.663 5.663 0 0 0-1.977 4.02 4.653 4.653 0 0 0 1.227 3.619 3.972 3.972 0 0 0 3.075 1.246l.079-.009a2.634 2.634 0 0 1-.335-1.293 2.783 2.783 0 0 1 2.818-2.74 2.782 2.782 0 0 1 2.817 2.74 2.706 2.706 0 0 1-1.5 2.417 5.843 5.843 0 0 1-3.614 1.708 6.894 6.894 0 0 1-5.455-2.122 7.49 7.49 0 0 1-2.02-5.734 8.513 8.513 0 0 1 3.018-6.025c3.239-2.638 8.485-2.76 12.2-.284a11.743 11.743 0 0 1 5.407 10.046z" class="cls-1" data-name="Path 26" transform="translate(-272.263 602.55)"/>
        <path id="Rectangle_4" d="M0 0H2.541V161.527H0z" class="cls-1" data-name="Rectangle 4" transform="translate(104.035 23.705)"/>
        <path id="Path_27" d="M196.228-348.456c-1.172-.873-7.176-5.223-10.3-5.223a6.447 6.447 0 0 0-6.527 6.349 6.447 6.447 0 0 0 6.527 6.347c3.129 0 9.128-4.35 10.3-5.222l1.507-1.125zm-3.361 1.125c-3.069 2.089-5.866 3.511-6.939 3.511a3.566 3.566 0 0 1-3.611-3.511 3.567 3.567 0 0 1 3.611-3.513c1.072.001 3.872 1.423 6.939 3.514z" class="cls-1" data-name="Path 27" transform="translate(-179.402 445.389)"/>
        <path id="Path_28" d="M362.81-353.246c1.362 1.015 13.468 9.916 19.261 9.916a11.213 11.213 0 0 0 11.351-11.042 11.211 11.211 0 0 0-11.351-11.041c-5.772 0-17.9 8.9-19.261 9.915l-1.509 1.126zm3.329-1.125c4.6-3.244 12.521-8.206 15.932-8.206a8.333 8.333 0 0 1 8.435 8.206 8.333 8.333 0 0 1-8.435 8.205c-3.41 0-11.335-4.962-15.932-8.205z" class="cls-1" data-name="Path 28" transform="translate(-294.27 452.799)"/>
    </g>
    <g id="Group_9" data-name="Group 9" transform="translate(180.96 94.624)">
        <path id="Path_29" d="M681.353-755.19c2.394-1.5 3.293-4.853 7.1-4.691 3.014.129 6.013-.2 7.926 3l.338-.437-.888-2.344h7.048c-.278.83-.527 1.577-.778 2.323l.223.444c2.652-3.964 6.548-2.838 10.167-2.841l4.927 4.527-.2.424h-6.588l-.037.415c2.509.466 5 1.058 7.533 1.353a10.594 10.594 0 0 1 4.132 1.781c3.159 1.809 4.421 4.306 3.824 7.84a23.731 23.731 0 0 0-.028 3.626l-2.638-1.829a5.048 5.048 0 0 0 .25.962c1.048 1.886 2.1 3.769 3.179 5.639a11.18 11.18 0 0 1 1.04 8.26l-5.251-4.406-.335.3a33.057 33.057 0 0 0 2.703 3.893c2.768 3 3.444 6.449 3.238 10.392a6.516 6.516 0 0 1-2.623 4.969l-4.375-7.191-.228.041a3.407 3.407 0 0 0 .085.846c.868 2.391 1.791 4.763 2.615 7.168a2.035 2.035 0 0 1-.078 1.606c-3 4.139-6.066 8.228-9.123 12.326a4.076 4.076 0 0 1-.636.5l-3.677-6.156-.361.117c.367 1.406.715 2.816 1.1 4.216.756 2.718.754 2.692-1.807 3.841-3.312 1.488-2.54 1.124-4.409-1.284a4.077 4.077 0 0 0-1.338-1.276c.366 1.049.672 2.123 1.116 3.139a1.755 1.755 0 0 1-.336 2.125c-1.571 1.757-3.074 1.033-4.779 3.03-1.82-2.14-3.583-1.617-5.253-3.706-.215-.269-.026-.935.113-1.376.332-1.055.746-2.085 1.127-3.125l-.332-.193a29.494 29.494 0 0 1-2.1 2.844c-.326.354-1.033.371-1.569.535-.039.011-.094-.027-.14-.043-4.194-1.473-4.2-1.473-3.135-5.686.239-.947.512-1.886.758-2.831.02-.077-.055-.177-.174-.515l-3.8 6.374a6.435 6.435 0 0 1-.787-.728c-2.856-3.817-5.67-7.663-8.568-11.447a2.532 2.532 0 0 1-.333-2.82c.972-2.433 1.809-4.918 2.7-7.382l-.335-.168-4.439 7.222a6.657 6.657 0 0 1-2.612-4.8 13.839 13.839 0 0 1 3.7-11.123 21.492 21.492 0 0 0 2.13-3.17c.034-.052-.043-.173-.129-.477-.918.756-1.77 1.449-2.611 2.154-.86.72-1.711 1.453-2.885 2.452-.053-2.6-.615-4.879.438-7 1.174-2.37 2.569-4.633 3.863-6.944a1.3 1.3 0 0 0 .172-.917l-2.443 1.631c0-2.868-.028-5.438.034-8.007.009-.352.408-.766.731-1.026 1.384-1.113 2.769-2.232 4.233-3.235a5.837 5.837 0 0 1 2.17-.828c2.81-.538 5.636-1 8.456-1.485l-.023-.371h-6.832zM709.054-723l-3.246-6.282.295-.187 4.211 4.93.277-.195-.666-1.477.354-.3 2.023 2.728.684-.178c.612-1.221 1.628-2.4 1.754-3.671a74.732 74.732 0 0 0 .1-8.5 3.84 3.84 0 0 0-.562-1.743c-.732-1.286-1.557-2.521-2.488-4h1.93c-2.6-1.69-5.22-3.152-7.872-4.561a4.082 4.082 0 0 0-5.752 2.862c-.171 1.142-.382 2.278-.575 3.417a13.981 13.981 0 0 1-.868-3.513 4.1 4.1 0 0 0-5.7-2.788c-1.878 1-3.741 2.022-5.608 3.039-.8.436-1.592.886-2.388 1.329l.122.3h1.764a2.843 2.843 0 0 1-.292.642c-2.554 2.839-3.025 6.211-2.664 9.824a12.9 12.9 0 0 1-.022 2.928c-.261 2 1.161 3.03 2.451 4.756l2.121-2.675.245.208-.723 1.817.2.132 4.674-5.486.185.125-3.234 6.4 1.669.578-1.632.9c.565.261 1.127.527 1.7.78a3.086 3.086 0 0 0 .452.125 4.807 4.807 0 0 1-1.315.367 4.717 4.717 0 0 0-.932.483 4.045 4.045 0 0 0 .965.692 7.513 7.513 0 0 0 1.474.213c-.011.1-.023.192-.035.289l-2.238.254c0 .215-.03.324.007.4a.731.731 0 0 0 .256.341c1.473.742 1.854 1.923 1.788 3.506-.059 1.419 2.132 3.272 3.6 3.281 2.533.016 5.067 0 7.6 0 1.659 0 3.782-1.843 3.693-3.485a3.186 3.186 0 0 1 1.7-3.262c.21-.123.32-.415.582-.775l-2.515-.258a4.453 4.453 0 0 1 1.435-.5 3.92 3.92 0 0 0 .946-.705 4.589 4.589 0 0 0-.936-.483 8.618 8.618 0 0 0-1.319-.147 6.956 6.956 0 0 1 1.485-.488c.3-.114.508-.466.758-.712a4 4 0 0 0-.925-.49 5.1 5.1 0 0 0-1.142-.019c.005-.114.012-.227.018-.341z" class="cls-2" data-name="Path 29" transform="translate(-670.466 759.886)"/>
        <path id="Path_30" d="M736.77-662.725c-1.788.891-1.955-1.166-3.051-1.465.231-1.644 1.371-1.607 2.35-1.245a6.235 6.235 0 0 0 4.594.063c.786-.288 1.836.122 2.767.216l.2.769a17.906 17.906 0 0 0-3.275 2.008 6.265 6.265 0 0 0-1.355 2.663c-.27.848.246 1.186 1.167 1.414a35.948 35.948 0 0 1 4.279 1.612l-.032.421a11.863 11.863 0 0 1-2.349-.322 11.381 11.381 0 0 0-7.359 0 16.233 16.233 0 0 1-2.35.392l-.093-.429c1.407-.563 2.8-1.182 4.228-1.673 1.3-.446 1.735-1.09 1.265-2.321-.278-.72-.656-1.404-.986-2.103z" class="cls-2" data-name="Path 30" transform="translate(-709.489 700.369)"/>
        <path id="Path_31" d="M717.213-697.339c2.237-1.839 5.128-2.036 6.855-.479 1.615 1.455 1.615 1.457.166 3.414l-.325-1.076c-1.853 1.138-3.994 1.056-5.168-.694a6.291 6.291 0 0 0-1.528-1.165z" class="cls-2" data-name="Path 31" transform="translate(-699.986 721.352)"/>
        <path id="Path_32" d="M766.932-697.369c-.646.547-1.258.99-1.779 1.52a3.362 3.362 0 0 1-4.8.337l-.382 1.119-.3.084c-.223-.786-.883-1.936-.582-2.287a6.158 6.158 0 0 1 3.007-2.031 4.862 4.862 0 0 1 4.836 1.258z" class="cls-2" data-name="Path 32" transform="translate(-726.385 721.307)"/>
        <path id="Path_33" d="M748.108-694.031v-3.654c.992 1.019 1.021 1.617 0 3.654z" class="cls-2" data-name="Path 33" transform="translate(-719.496 720.607)"/>
    </g>
    <g id="Group_10" data-name="Group 10" transform="translate(82.727)">
        <path id="Path_34" d="M633.65-805.523v14.439h-.209l-4.061-7.938c1.8-1.385 2.288-2.656 1.438-4-.9-1.414-2.478-2.033-4.82-1.327l-3.454-4.791c1.564-1.573 1.794-2.832.783-4.11s-2.416-1.51-4.861-.852l-5.532-5.677c1.42-1.736 1.505-3 .3-4.2-1.218-1.213-2.685-1.274-5.205-.21l-5.881-4.591c.937-1.793.72-3.049-.68-4.031-1.348-.948-2.809-.86-4.824.287l-5.814-3.47c.7-1.809.273-3.166-1.22-3.964s-3.074-.526-4.814.852l-7.408-3.244c.551-2.049-.086-3.433-1.826-4.054s-3.3-.063-4.634 1.667l-9.922-2.811c.152-2.135-.554-3.372-2.32-3.751a5.409 5.409 0 0 0-2.253.062 3.036 3.036 0 0 0-2.216 2.184l-15.376-1.8c7.668-3.1 11.853-8.262 12.333-15.643h-19.538v16.419h-1.951v-16.427h-18.377a12.411 12.411 0 0 0 1.408 6.427 18.89 18.89 0 0 0 10.939 9.247l-17.389 2.367a3.477 3.477 0 0 0-4.226-2.231 4.575 4.575 0 0 0-1.941 1.116 2.62 2.62 0 0 0-.479 2.836l-9.87 3.077c-1.349-1.746-2.847-2.33-4.572-1.646a4.384 4.384 0 0 0-1.69 1.263 2.642 2.642 0 0 0-.078 2.936l-7.3 3.426c-1.754-1.416-3.2-1.68-4.756-.886s-1.912 1.969-1.221 4.205l-5.622 3.556c-2.036-1.2-3.475-1.323-4.823-.281a2.877 2.877 0 0 0-1.151 1.633 7.376 7.376 0 0 0 .306 2.235l-5.525 5.084a3.943 3.943 0 0 0-4.909-.053c-1.426 1.191-1.334 2.652.275 4.511l-5.02 5.625c-.076.086-.168.161-.248.236-2.315-.772-3.867-.521-4.911.786-1.056 1.323-.737 2.71 1.013 4.255l-3.32 4.909c-2.128-.694-3.88-.258-4.789 1.133-.968 1.479-.439 2.814 1.625 4.2l-4.572 10.062-.372-18.028-24.19 6.895 12.5 21.9c2.254-.871 4.144-.466 5.1 1.036 1 1.567.356 2.965-2.03 4.343 3.783 6.629 7.569 13.264 11.4 19.97a7.2 7.2 0 0 0-5.137 2.078 5.074 5.074 0 0 0-1.317 6.106c1.036 1.928 2.648 2.811 5.681 2.689.6-.024 1.191-.074 1.873-.117v.88c0 4.333-.011 137.9.014 142.237a1.723 1.723 0 0 1-.615 1.386c-2.4 2.235-5.381 4.852-6.018 7.841-1.737 8.147 4.288 13.587 13.981 13.165 3.562-.156 9.693.2 13.252 0 6.478-.364 12.956.285 19.44 0 8.346-.368 16.7.252 25.049 0 6.94-.21 13.885.008 20.828 0 12.956-.016 25.916-.187 38.87 0 9.706.14 19.408-.353 29.108 0 5.78.21 11.554-.325 17.327 0 6.221.349 12.433-.294 18.658 0 6.865.324 12.925-2 14.431-7.733 1.465-5.569-.687-10.235-5.314-14.2a1.762 1.762 0 0 1-.614-1.176c-.045-4.085-.028-137.41-.025-141.5 0-.24.032-.479.054-.79 1.752.066 3.457.113 4.927-.821a4.5 4.5 0 0 0 2.316-3.708c.142-3.329-2.321-5.557-7.1-6.4l12.251-21.467c-2.261-1.146-2.985-2.583-2.141-4.141.866-1.6 2.511-2 5.228-1.262l12.156-21.3zM441.816-580.53c-3.039.035-5.6-2.123-5.611-4.726s2.487-4.755 5.559-4.758 5.591 2.157 5.569 4.755-2.483 4.693-5.517 4.729zm42.781-2.212c-3.106.006-5.568-2.083-5.569-4.725s2.472-4.733 5.571-4.725c3.055.008 5.5 2.079 5.522 4.685.027 2.64-2.431 4.76-5.521 4.765zm48.714-1.065c-3.028.024-5.6-2.154-5.607-4.747s2.542-4.754 5.6-4.746 5.57 2.169 5.546 4.777c-.027 2.572-2.516 4.692-5.539 4.717zm45.872 1.065c-3.095 0-5.6-2.113-5.589-4.728s2.507-4.73 5.6-4.722c3.042.008 5.505 2.092 5.543 4.689s-2.474 4.756-5.554 4.761zm27.807-14.882c-4.605-.376-9.209-.772-13.82-1.083-6.119-.411-12.242-.8-18.369-1.1-5.936-.3-11.878-.587-17.822-.686-11.507-.192-23.019-.41-34.526-.313-10.766.091-21.531.491-32.287.918-7.864.311-15.719.815-23.566 1.365-6.819.478-13.623 1.113-20.426 1.739-3.94.364-5.434-.447-5.8-3.818-.4-3.656-.5-136.583.266-140.223.594-2.832 2.3-4 5.635-4.274 6.14-.5 12.271-1.085 18.413-1.564q7.583-.593 15.185-1.015c6.319-.345 12.642-.682 18.968-.871 10.763-.322 21.531-.526 32.469-.784 11.311.271 22.79.426 34.254.858 9.887.372 19.764.984 29.633 1.634 7.141.471 14.262 1.168 21.39 1.781a6.129 6.129 0 0 1 5.8 4.474c.913 2.811.924 127.19.684 130.068-.09 1.083-.3 9.923-.675 10.959-.757 2.1-2.311 3-4.856 2.826-3.522-.247-7.033-.604-10.55-.891zm14.177 16.853c-3.084-.013-5.55-2.147-5.521-4.777.029-2.592 2.493-4.667 5.547-4.672 3.091-.005 5.6 2.126 5.581 4.734-.022 2.625-2.522 4.727-5.607 4.715zm3.017-182.18c-7.452 6.319-18.688 5.4-24.849 2.3a12.943 12.943 0 0 1-5.8-6.287 1.06 1.06 0 0 1-.086-.478q.091-4.6.2-9.206a.977.977 0 0 1 .094-.227c6.551 2.581 10.587 7.106 13.457 12.56l.271-.026c.378-1.345.829-2.679 1.118-4.038a19.048 19.048 0 0 0 0-9.3c-1.405-4.973-6.408-8.191-12.485-7.264a3.063 3.063 0 0 1-.387-.021c1.1-6.87-1.368-12.8-6.844-18.132-5.734 5.681-8.008 12.005-6.538 19.3-1.222-.176-2.306-.384-3.4-.48-5.574-.492-9.928 2.566-11.358 6.9a18.471 18.471 0 0 0-.065 10.093 26.885 26.885 0 0 0 1.191 3.715c3.389-6.228 8.177-11.14 16.17-13.411a6.41 6.41 0 0 1 .091.728c-.01 2.6.086 5.215-.109 7.809a4.761 4.761 0 0 1-1.4 2.444c-2.19 2.432-5.234 3.829-8.561 4.814a33.879 33.879 0 0 1-15.286 1.036c-2.368-.39-10.754-1.069-12.655-2l-15.789 8.107-16.1-8.1c-2.57 1.42-9.4 2.392-12.656 2.738-8.283.881-15.235-1.4-20.914-6.569a1.4 1.4 0 0 1-.524-.821c-.038-2.9-.023-5.794-.023-8.777 6.556 2.607 10.611 7.117 13.467 12.577l.281-.012c.408-1.521.887-3.03 1.211-4.563a17.124 17.124 0 0 0-.131-8.887c-1.265-3.961-4.087-6.6-9.018-7.231a31.424 31.424 0 0 0-3.83-.023c1.062-6.886-1.375-12.77-6.829-18.053-5.778 5.636-7.954 11.993-6.544 19.31-1.069-.179-1.992-.4-2.932-.481-6.12-.508-10.693 2.379-12.063 7.674-.963 3.723-.429 7.411.636 11.062.191.655.431 1.3.726 2.185 3.384-6.447 8.159-11.372 16.122-13.638a2.176 2.176 0 0 1 .153.538c-.076 2.274-.145 4.55-.265 6.822a2.817 2.817 0 0 1-.4 1.325c-3.805 6.022-9.736 9.166-17.756 9.04-8.487-.134-14.573-3.69-18.4-10.115-.168-.284-.332-.57-.569-.978l11.344 2.539c-.39-1.39-.744-2.683-1.117-3.972-1.542-5.339-3.1-10.675-4.616-16.02a2.033 2.033 0 0 1 .1-1.333q15.083-32.782 52.791-47.147a106.868 106.868 0 0 1 25.608-6.06 4.727 4.727 0 0 1 .512 0V-829h22.956v-12.24c1.734.2 3.413.358 5.08.589a106.378 106.378 0 0 1 37.215 12.151q25.432 14.06 37.316 37.87a1.95 1.95 0 0 1 .073 1.332q-3.025 10.607-6.107 21.2c-.051.177-.076.359-.134.641l14.541-3.255a24.126 24.126 0 0 1-6.184 7.762z" class="cls-1" data-name="Path 34" transform="translate(-403.896 921.832)"/>
        <path id="Path_35" d="M687.494-990.3v9.5a33.975 33.975 0 0 1 11.872-6.759c-1.526 3.739-4.152 6.566-7.4 9.288h6.318c-7.162 3.07-11.355 8.019-12.453 15.174h18.506v-15.414c1.9-.294 1.915-.286 1.915 1.278v13.146c0 .334.035.668.055 1h19.362c-1.017-6.867-4.959-11.745-11.647-14.986h5.478a29.265 29.265 0 0 1-7.237-9.752 27.172 27.172 0 0 1 11.133 6.7l.25-.118v-9.641c3.063.917 5.015.536 6.484-1.182a4.042 4.042 0 0 0 .182-5.05c-1.333-1.819-3.238-2.255-6.54-1.476v-7.225a33.649 33.649 0 0 1-12.338 6.9c1.379-4.366 4.277-7.581 7.721-10.474l-.131-.222H709.2c1.355-2.647 1.043-4.618-.857-6.036a5.251 5.251 0 0 0-5.9-.217c-2.088 1.353-2.493 3.314-1.218 6.213h-9.4a27.683 27.683 0 0 1 7.707 11.038 26.642 26.642 0 0 1-11.678-6.884l-.21.107v7.272c-2.609-.92-4.76-.562-6.381 1.41a3.886 3.886 0 0 0-.08 4.827c1.572 2.044 3.73 2.489 6.311 1.583zm18.065-5.963a3.3 3.3 0 0 1 3.477 3.139 3.308 3.308 0 0 1-3.5 3.123 3.366 3.366 0 0 1-3.413-3.142 3.365 3.365 0 0 1 3.436-3.116z" class="cls-1" data-name="Path 35" transform="translate(-578.494 1016.665)"/>
    </g>
    <g id="Group_14" data-name="Group 14" transform="translate(92.841 381.766)">
        <g id="Group_11" data-name="Group 11" transform="translate(129.118)">
            <path id="Path_36" d="M868.737 45.432a3.366 3.366 0 0 1-2.389 4.646c-.1.017-.133.09-.048.111 6.188 1.632 7.931-5.851 3.2-10.407-7.681-7.393-30.317-11.3-54.729 6.174-18.283 13.089-28.655 2.861-31.415-.25-3.475-3.915-.8-5.044 2.452-.585 4.006 5.49 13.761 7.642 30.785-4.921 29.246-21.591 64.343-6.019 57.426 8.946-1.984 4.294-7.712 4.837-10.6 2.55-6.937-5.496 2.912-11.896 5.318-6.264z" class="cls-1" data-name="Path 36" transform="translate(-781.723 -25.79)"/>
            <path id="Path_37" d="M865 79.215c2.7-.972 13.313-5.214 15.68.646 2.444 6.049-7.422 8.327-5.255 3.834 2.253-4.671-4.8-6.047-9.1-4.23-3.671 1.547-5.663 1.311-1.325-.25z" class="cls-1" data-name="Path 37" transform="translate(-832.755 -55.631)"/>
            <path id="Path_38" d="M856.019 34.333c-3.894 2.451-2.862.74.613-1.192 4.08-2.269 7.311-8.652 2.219-9.747-4.9-1.053 2.955-7.4 6.268-1.78 3.203 5.45-6.673 11.191-9.1 12.719z" class="cls-1" data-name="Path 38" transform="translate(-827.067 -19.319)"/>
        </g>
        <g id="Group_12" data-name="Group 12">
            <path id="Path_39" d="M437.5 45.432a3.366 3.366 0 0 0 2.389 4.646c.1.017.133.09.048.111-6.188 1.632-7.931-5.851-3.2-10.407 7.681-7.393 30.317-11.3 54.729 6.174 18.283 13.089 28.655 2.861 31.415-.25 3.475-3.915.8-5.044-2.452-.585-4.006 5.49-13.761 7.642-30.785-4.921-29.246-21.591-64.343-6.019-57.426 8.946 1.984 4.294 7.712 4.837 10.6 2.55 6.94-5.496-2.909-11.896-5.318-6.264z" class="cls-1" data-name="Path 39" transform="translate(-431.34 -25.79)"/>
            <path id="Path_40" d="M569.157 79.215c-2.7-.972-13.313-5.214-15.68.646-2.444 6.049 7.422 8.327 5.255 3.834-2.253-4.671 4.8-6.047 9.1-4.23 3.668 1.547 5.659 1.311 1.325-.25z" class="cls-1" data-name="Path 40" transform="translate(-508.221 -55.631)"/>
            <path id="Path_41" d="M588.948 34.333c3.894 2.451 2.863.74-.614-1.192-4.079-2.269-7.311-8.652-2.218-9.747 4.9-1.053-2.955-7.4-6.268-1.78-3.203 5.45 6.673 11.191 9.1 12.719z" class="cls-1" data-name="Path 41" transform="translate(-524.722 -19.319)"/>
        </g>
        <g id="Group_13" data-name="Group 13" transform="translate(81.386 2.776)">
            <path id="Path_42" d="M652.217 60.447c.344 3.636 2.249 6.977 4.852 8.21-2.04.467-.845 2.7 1.174 3.224 9.423 2.755 17.773-5.334 16.864-14.424a15.028 15.028 0 0 0-1.863-6.1A11.17 11.17 0 0 0 676.9 49.6a12.112 12.112 0 0 0 2.751-2.932 8.495 8.495 0 0 0-.73-1.878c-5.314-10.026 1.6-17 1.6-16.885 0-.116 6.916 6.86 1.6 16.885a8.67 8.67 0 0 0-.727 1.878 12.076 12.076 0 0 0 2.751 2.932 11.154 11.154 0 0 0 3.655 1.76 15.031 15.031 0 0 0-1.863 6.1c-.907 9.09 7.44 17.179 16.862 14.424 2.024-.528 3.216-2.756 1.176-3.224 1.922-.939 4.568-4.574 4.851-8.21a8.084 8.084 0 0 0-5.091-8.45 8.383 8.383 0 0 0-8.069 1.292 6.209 6.209 0 0 0 3.862 11.139c1.74-.06 3.678-.995 3.9-2.286a16.375 16.375 0 0 1-2.83-4.986c-1.152 2.758-6.046 1.879-5.258-1.582.567-2.4 4.771-3.927 8.228-2.7a6.277 6.277 0 0 1 3.783 4.225c2.689 9.088-11.466 13.78-17.248 7.268a6.888 6.888 0 0 1-1.212-1.932l.385.175c1.578.644 3.578-1.173 2.022-1.642-6.326-2.757-3.051-8.62-2.487-9.439 2.125.118 3.943-.06 5.721-1.759a1.3 1.3 0 0 0-.767-2.227 5.214 5.214 0 0 0-5.5 2.931c-2.727-.411-5.337-3.519-5.2-3.87 6.958-12.018-2.547-19.524-2.547-19.761.059.118-9.5 7.743-2.545 19.761.139.351-2.469 3.46-5.2 3.87-.73-1.349-2.992-3.46-5.624-3.05-1.333.177-1.254 1.7-.646 2.346 1.777 1.7 3.6 1.877 5.722 1.759.566.819 3.84 6.682-2.489 9.439-1.554.469.447 2.286 2.022 1.642l.383-.175a6.842 6.842 0 0 1-1.209 1.932c-6.229 7.039-22.183 1-16.318-9.437 3.377-4.162 10.354-2.522 11.08.644.789 3.46-4.1 4.339-5.256 1.582a16.46 16.46 0 0 1-2.832 4.986c.223 1.291 2.162 2.226 3.9 2.286a6.209 6.209 0 0 0 3.875-11.131 8.094 8.094 0 0 0-13.164 7.147zm41.166-12.254c.849.059.547.9-.1 1.41a6.768 6.768 0 0 1-4.024 1.055 5.005 5.005 0 0 1 4.124-2.465zM667.761 49.6c-.647-.511-.952-1.351-.1-1.41a5.009 5.009 0 0 1 4.124 2.465 6.753 6.753 0 0 1-4.024-1.055z" class="cls-1" data-name="Path 42" transform="translate(-652.194 -26.851)"/>
            <path id="Path_43" d="M718.945 112.606c-1.98.623-4.2-1.309-4.527-1.585-2.742-2.318-4.252-5.813-5.058-10.386a14.371 14.371 0 0 1 .336-6.968 13.256 13.256 0 0 1 1.656-3.852c-1.6-.311-4.718-3.439-4.718-4.317 0 .878-3.112 4.006-4.717 4.317a13.212 13.212 0 0 1 1.651 3.852 14.338 14.338 0 0 1 .34 6.968c-.806 4.573-2.317 8.068-5.057 10.386-.329.276-2.549 2.208-4.533 1.585-1.333-.372-.829.82.73 1.484 2.314.839 5.216.586 6.772-1.484a2.055 2.055 0 0 1 .026.3 13.027 13.027 0 0 0 2.573 7.307 11.707 11.707 0 0 1 1.027 1.688 10.717 10.717 0 0 1 1.187 3.733 10.57 10.57 0 0 1 1.189-3.733 10.922 10.922 0 0 1 1.024-1.688 13.031 13.031 0 0 0 2.57-7.307 1.612 1.612 0 0 1 .029-.3c1.556 2.07 4.456 2.323 6.771 1.484 1.559-.664 2.064-1.857.729-1.484z" class="cls-1" data-name="Path 43" transform="translate(-678.311 -63.886)"/>
        </g>
    </g>
    <g id="Group_15" data-name="Group 15" transform="translate(140.041 95.973)">
        <path id="Path_44" d="M609.464-756.223a.179.179 0 0 1 .086.346 41.641 41.641 0 0 0-9.514 4.174 1.416 1.416 0 0 1 .1.323 1.449 1.449 0 0 1-1.149 1.667 1.444 1.444 0 0 1-1.335-.471c-.3.217-.614.432-.914.645a2.526 2.526 0 0 0 1.352.938l-.387.4c-.444.421-1.531 1.485-3.023 3.2-1.457 1.693-2.6 4.059-2.178 6.323a5 5 0 0 0 .709 1.8 2.679 2.679 0 0 0 2.594 1.229 1.691 1.691 0 0 0 1.358-1.842 1.3 1.3 0 0 0-1.439-1.03c-.96.2-.9 1.5-.14 1.278a.322.322 0 0 0 .014-.633.566.566 0 0 1 .667.383.6.6 0 0 1-.027.311.86.86 0 0 1-1.6-.31 1.211 1.211 0 0 1 1.018-1.377 1.649 1.649 0 0 1 1.855 1.315 2.057 2.057 0 0 1-1.642 2.258 3.017 3.017 0 0 1-2.959-1.38 5.449 5.449 0 0 1-.761-1.935c-.446-2.415.77-4.894 2.27-6.63 1.485-1.719 2.584-2.8 3.036-3.231a2.943 2.943 0 0 1-1.013-.844l-.642.486c-3.573 2.771-7.2 6.281-8.89 11.154-1.387 4.018-1.992 8.629.462 12.326 1.45 2.179 3.7 3.777 5.959 3.358 1.924-.356 3.587-1.986 3.21-4.027a2.509 2.509 0 0 0-2.42-2.134 2.236 2.236 0 0 0-2.086 1.112 1.47 1.47 0 0 0 0 1.334 1.084 1.084 0 0 0 1.24.668c.65-.1.955-1 .21-1.153a.789.789 0 0 0-.737.327c-.107-.307.286-.621.37-.675a.91.91 0 0 1 .6-.11.889.889 0 0 1 .744.725 1.156 1.156 0 0 1-1.021 1.292 1.607 1.607 0 0 1-1.734-.914 1.865 1.865 0 0 1 0-1.675 2.5 2.5 0 0 1 2.438-1.3 2.9 2.9 0 0 1 2.746 2.44c.413 2.228-1.384 4.054-3.5 4.446-2.472.457-4.845-1.289-6.324-3.513-2.523-3.791-1.916-8.512-.495-12.635 1.712-4.973 5.4-8.546 9-11.322.209-.172.435-.335.661-.5a2.339 2.339 0 0 1-.408-1.017c-4.294 1.316-8.762 5.15-13.074 8.86-1.067.925-2.137 1.84-3.176 2.7a20.913 20.913 0 0 1-9.052 4.116c-3.179.589-6.466.321-9-1.552a5.332 5.332 0 0 1-2.024-3.324 5.249 5.249 0 0 1-.051-1.582 3.627 3.627 0 0 1 3.087-3.248l.233-.044a2.882 2.882 0 0 1 3.134 2.367 2.42 2.42 0 0 1-.715 2.231 2.125 2.125 0 0 1-1.152.6A2.269 2.269 0 0 1 562.2-740a1.592 1.592 0 0 1-.523-1.309 1.418 1.418 0 0 1 1.213-1.246 1.183 1.183 0 0 1 1.427.828.619.619 0 0 1-.722.691c.546-1.059-1.173-1.226-1.233-.255a1.487 1.487 0 0 0 2.6.949 2.115 2.115 0 0 0 .6-1.919 2.535 2.535 0 0 0-2.736-2.079l-.214.039a3.267 3.267 0 0 0-2.79 2.942 4.61 4.61 0 0 0 .044 1.474 5.035 5.035 0 0 0 1.885 3.108c2.418 1.8 5.584 2.059 8.716 1.48a20.662 20.662 0 0 0 8.9-4.037c1.031-.858 2.086-1.769 3.17-2.683 4.361-3.754 8.959-7.738 13.43-9.012.2-.037.182-.068.187-.049a2.132 2.132 0 0 0 .388 1.251c.3-.211.6-.426.913-.641a1.564 1.564 0 0 1-.132-.387 1.451 1.451 0 0 1 1.146-1.67 1.46 1.46 0 0 1 1.383.521 42.363 42.363 0 0 1 7.135-3.4zm-9.7 4.675a1.41 1.41 0 0 0-.193-.3 1.136 1.136 0 0 0-1.046-.363 1.127 1.127 0 0 0-.9 1.3 1.107 1.107 0 0 0 .082.264 1.18 1.18 0 0 0 .207.3 1.138 1.138 0 0 0 1.015.329 1.125 1.125 0 0 0 .9-1.3 1.7 1.7 0 0 0-.067-.231z" class="cls-1" data-name="Path 44" transform="translate(-559.425 756.227)"/>
        <path id="Path_45" d="M605.051-729.21a19.652 19.652 0 0 0 6.977-3.06 15.188 15.188 0 0 1-6.912 3.413c-2.335.432-4.6.066-5.777-1.782a2.6 2.6 0 0 1-.391-1.731 1.875 1.875 0 0 1 2.134-1.624 1.315 1.315 0 0 1 1.1 1.084 1.218 1.218 0 0 1-.661 1.337 1 1 0 0 1-.58.081.88.88 0 0 1-.738-.649.7.7 0 0 1 .12-.523c.26-.375.922-.4 1.019.115.032.176-.165.356-.32.376.02-.418-.484-.25-.436.006.067.363.492.42.78.266a.849.849 0 0 0 .467-.944.958.958 0 0 0-.8-.789 1.512 1.512 0 0 0-1.725 1.3 2.383 2.383 0 0 0 .341 1.505c1.043 1.664 3.114 2.044 5.402 1.619z" class="cls-1" data-name="Path 45" transform="translate(-584.369 742.201)"/>
    </g>
    <g id="Group_16" data-name="Group 16" transform="translate(228.44 95.973)">
        <path id="Path_46" d="M802-755.4a42.354 42.354 0 0 1 7.136 3.4 1.46 1.46 0 0 1 1.383-.521 1.451 1.451 0 0 1 1.146 1.67 1.563 1.563 0 0 1-.131.387c.311.215.612.43.913.641a2.132 2.132 0 0 0 .388-1.251c0-.019-.013.012.187.049 4.471 1.274 9.069 5.258 13.43 9.012 1.084.914 2.139 1.826 3.17 2.683a20.661 20.661 0 0 0 8.9 4.037c3.131.58 6.3.319 8.716-1.48a5.036 5.036 0 0 0 1.885-3.108 4.623 4.623 0 0 0 .044-1.474 3.267 3.267 0 0 0-2.79-2.942l-.214-.039a2.535 2.535 0 0 0-2.736 2.079 2.116 2.116 0 0 0 .6 1.919 1.487 1.487 0 0 0 2.6-.949c-.06-.971-1.779-.8-1.233.255a.62.62 0 0 1-.722-.691 1.184 1.184 0 0 1 1.428-.828 1.417 1.417 0 0 1 1.213 1.246 1.591 1.591 0 0 1-.522 1.309 2.269 2.269 0 0 1-1.853.507 2.125 2.125 0 0 1-1.152-.6 2.42 2.42 0 0 1-.714-2.231 2.882 2.882 0 0 1 3.128-2.38l.233.044a3.627 3.627 0 0 1 3.087 3.248 5.245 5.245 0 0 1-.05 1.582 5.332 5.332 0 0 1-2.024 3.324c-2.529 1.873-5.816 2.141-9 1.552a20.913 20.913 0 0 1-9.052-4.116c-1.039-.859-2.109-1.775-3.176-2.7-4.311-3.71-8.78-7.544-13.073-8.86a2.342 2.342 0 0 1-.408 1.017c.226.162.451.324.661.5 3.6 2.776 7.291 6.349 9 11.322 1.422 4.123 2.028 8.843-.495 12.635-1.479 2.224-3.852 3.97-6.324 3.513-2.114-.392-3.911-2.218-3.5-4.446a2.9 2.9 0 0 1 2.746-2.44 2.5 2.5 0 0 1 2.438 1.3 1.865 1.865 0 0 1 0 1.675 1.607 1.607 0 0 1-1.734.914 1.156 1.156 0 0 1-1.021-1.292.889.889 0 0 1 .743-.725.911.911 0 0 1 .6.11c.084.055.477.368.37.675a.789.789 0 0 0-.737-.327c-.745.151-.44 1.057.211 1.153a1.084 1.084 0 0 0 1.24-.668 1.471 1.471 0 0 0 0-1.334 2.236 2.236 0 0 0-2.086-1.112 2.509 2.509 0 0 0-2.42 2.134c-.377 2.04 1.286 3.671 3.21 4.027 2.262.419 4.509-1.179 5.959-3.358 2.453-3.7 1.849-8.308.462-12.326-1.685-4.873-5.317-8.383-8.89-11.154l-.642-.486a2.943 2.943 0 0 1-1.013.844c.451.435 1.55 1.512 3.036 3.231 1.5 1.736 2.716 4.214 2.27 6.63a5.449 5.449 0 0 1-.761 1.935 3.017 3.017 0 0 1-2.959 1.38 2.058 2.058 0 0 1-1.642-2.258 1.65 1.65 0 0 1 1.855-1.315 1.211 1.211 0 0 1 1.018 1.377.86.86 0 0 1-1.6.31.6.6 0 0 1-.027-.311.565.565 0 0 1 .667-.383.322.322 0 0 0 .014.633c.76.227.819-1.075-.14-1.278a1.3 1.3 0 0 0-1.439 1.03 1.691 1.691 0 0 0 1.358 1.842 2.68 2.68 0 0 0 2.594-1.229 5 5 0 0 0 .709-1.8c.418-2.264-.722-4.631-2.178-6.323-1.492-1.715-2.579-2.779-3.023-3.2l-.387-.4a2.525 2.525 0 0 0 1.352-.937c-.3-.214-.612-.429-.913-.645a1.445 1.445 0 0 1-1.335.471 1.45 1.45 0 0 1-1.149-1.667 1.438 1.438 0 0 1 .1-.323 41.646 41.646 0 0 0-9.514-4.174.179.179 0 0 1 .086-.346zm7.159 4.081a1.125 1.125 0 0 0 .9 1.3 1.138 1.138 0 0 0 1.015-.329 1.188 1.188 0 0 0 .208-.3 1.1 1.1 0 0 0 .082-.264 1.127 1.127 0 0 0-.9-1.3 1.136 1.136 0 0 0-1.045.363 1.415 1.415 0 0 0-.193.3 1.7 1.7 0 0 0-.067.227z" class="cls-1" data-name="Path 46" transform="translate(-799.31 756.227)"/>
        <path id="Path_47" d="M867.586-729.21a19.657 19.657 0 0 1-6.977-3.06 15.19 15.19 0 0 0 6.912 3.413c2.335.432 4.6.066 5.777-1.782a2.6 2.6 0 0 0 .391-1.731 1.874 1.874 0 0 0-2.134-1.624 1.314 1.314 0 0 0-1.1 1.084 1.218 1.218 0 0 0 .661 1.337 1 1 0 0 0 .58.081.88.88 0 0 0 .738-.649.7.7 0 0 0-.12-.523c-.26-.375-.922-.4-1.019.115-.032.176.166.356.32.376-.02-.418.484-.25.436.006-.068.363-.492.42-.78.266a.849.849 0 0 1-.466-.944.958.958 0 0 1 .8-.789 1.512 1.512 0 0 1 1.725 1.3 2.383 2.383 0 0 1-.341 1.505c-1.044 1.664-3.115 2.044-5.403 1.619z" class="cls-1" data-name="Path 47" transform="translate(-838.02 742.201)"/>
    </g>
    <g id="Group_17" data-name="Group 17" transform="translate(198.647 203.043)">
        <path id="Path_50" d="M742.32-451.41c-.027.293-.249.506-.65.642-1.072.288-2.508-1.375-3.363-3.912-2.581-5.032-1.056-10.075-4.05-11a5.333 5.333 0 0 1 .167 2.741 9.147 9.147 0 0 1-1.576 3.614c-2.094 3.032-1.2 4.689-.232 6.092-1.582-.842-5.3-.395-6.878 1.143-1.715 1.69-7.18 3.727-7.275 3.707.095-.022 5.636 1.816 7.418 3.436 1.637 1.47 5.371 1.773 6.918.865-.909 1.441-1.739 3.132.476 6.081a9.19 9.19 0 0 1 1.719 3.549 5.338 5.338 0 0 1-.059 2.741c2.956-1.039 1.23-6.01 3.608-11.147.754-2.567 2.121-4.289 3.2-4.041.405.121.636.321.674.615" class="cls-1" data-name="Path 50" transform="translate(-718.463 465.675)"/>
    </g>
</svg>
