<svg xmlns="http://www.w3.org/2000/svg" width="28.635" height="28.635" viewBox="0 0 28.635 28.635">
    <path id="Icon_metro-instagram" fill="#fff" d="M26.452 1.928H7.325a4.768 4.768 0 0 0-4.754 4.754v19.127a4.768 4.768 0 0 0 4.754 4.754h19.127a4.768 4.768 0 0 0 4.754-4.754V6.682a4.768 4.768 0 0 0-4.754-4.754zM11.737 14.456h10.3a5.453 5.453 0 1 1-10.3 0zm15.889 0v10.738a1.8 1.8 0 0 1-1.79 1.79H7.94a1.8 1.8 0 0 1-1.79-1.79V14.456h2.8a8.138 8.138 0 1 0 15.878 0h2.8zm0-6.265a.9.9 0 0 1-.895.895h-1.79a.9.9 0 0 1-.895-.895V6.4a.9.9 0 0 1 .895-.895h1.79a.9.9 0 0 1 .895.895z" data-name="Icon metro-instagram" transform="translate(-2.571 -1.928)"/>
</svg>
